<svg width="600" height="600" viewBox="0 0 600 600" fill="none" xmlns="http://www.w3.org/2000/svg">
<path d="M600 300C600 465.685 465.685 600 300 600C134.315 600 0 465.685 0 300C0 134.315 134.315 0 300 0C465.685 0 600 134.315 600 300ZM90 300C90 415.98 184.02 510 300 510C415.98 510 510 415.98 510 300C510 184.02 415.98 90 300 90C184.02 90 90 184.02 90 300Z" fill="#333333"/>
<circle cx="74" cy="178" r="30" fill="#D9D9D9"/>
<circle cx="364" cy="545" r="30" fill="#D9D9D9"/>
<circle cx="240" cy="545" r="30" fill="#D9D9D9"/>
<circle cx="132" cy="494" r="30" fill="#D9D9D9"/>
<circle cx="65" cy="399" r="30" fill="#D9D9D9"/>
<circle cx="45" cy="282" r="30" fill="#D9D9D9"/>
<circle cx="490" cy="126" r="30" fill="#D9D9D9"/>
<circle cx="388" cy="59" r="30" fill="#D9D9D9"/>
<circle cx="74" cy="178" r="30" fill="#D9D9D9"/>
<circle cx="149" cy="92" r="30" fill="#D9D9D9"/>
<circle cx="258" cy="47" r="30" fill="#D9D9D9"/>
<rect x="532.066" y="248.725" width="62.5476" height="7" transform="rotate(-10.394 532.066 248.725)" fill="#D9D9D9"/>
</svg>
